<?xml version="1.0" encoding="utf-8"?><svg xml:space="preserve" viewBox="0 0 100 100" y="0" x="0" xmlns="http://www.w3.org/2000/svg" id="圖層_1" version="1.1" width="200px" height="200px" xmlns:xlink="http://www.w3.org/1999/xlink" style="width:100%;height:100%;background-size:initial;background-repeat-y:initial;background-repeat-x:initial;background-position-y:initial;background-position-x:initial;background-origin:initial;background-color:initial;background-clip:initial;background-attachment:initial;animation-play-state:paused" ><g class="ldl-scale" style="transform-origin:50% 50%;transform:rotate(0deg) scale(0.8, 0.8);animation-play-state:paused" ><circle stroke-linejoin="round" stroke-linecap="round" stroke="#333" fill="#f47e60" stroke-miterlimit="10" stroke-width="3.5" r="13.2" cy="33.4" cx="50" style="stroke:rgb(51, 51, 51);fill:rgb(244, 126, 96);animation-play-state:paused" ></circle>
<path stroke-miterlimit="10" stroke-width="3.5" stroke="#000" stroke-linejoin="round" stroke-linecap="round" opacity=".2" d="M57.3 22.4c1.7 3.6 2 8.2.3 12.5-2.5 6.3-8.2 10.2-14 10 1.9 1.1 4.1 1.7 6.4 1.7 7.3 0 13.2-5.9 13.2-13.2 0-4.6-2.4-8.6-5.9-11z" style="animation-play-state:paused" ></path>
<path stroke-miterlimit="10" stroke-width="3.5" stroke="#fff" fill="none" stroke-linejoin="round" stroke-linecap="round" d="M43.7 28c1.2-1.3 2.7-2.4 4.3-3.2" style="stroke:rgb(255, 255, 255);animation-play-state:paused" ></path>
<path stroke-miterlimit="10" stroke-width="3.5" stroke="#fff" fill="none" stroke-linejoin="round" stroke-linecap="round" d="M41.4 32l.3-.9" style="stroke:rgb(255, 255, 255);animation-play-state:paused" ></path>
<circle stroke-linejoin="round" stroke-linecap="round" fill="#a0c8d7" stroke-miterlimit="10" stroke-width="3.5" stroke="#333" r="13.2" cy="50" cx="35.3" style="stroke:rgb(51, 51, 51);fill:rgb(160, 200, 215);animation-play-state:paused" ></circle>
<path stroke-miterlimit="10" stroke-width="3.5" stroke="#000" stroke-linejoin="round" stroke-linecap="round" opacity=".2" d="M42.6 39c1.7 3.6 2 8.2.3 12.5-2.5 6.3-8.2 10.2-14 10 1.9 1.1 4.1 1.7 6.4 1.7 7.3 0 13.2-5.9 13.2-13.2 0-4.6-2.3-8.6-5.9-11z" style="animation-play-state:paused" ></path>
<path stroke-miterlimit="10" stroke-width="3.5" stroke="#fff" fill="none" stroke-linejoin="round" stroke-linecap="round" d="M29.1 44.6c1.2-1.3 2.7-2.4 4.3-3.2" style="stroke:rgb(255, 255, 255);animation-play-state:paused" ></path>
<path stroke-miterlimit="10" stroke-width="3.5" stroke="#fff" fill="none" stroke-linejoin="round" stroke-linecap="round" d="M26.8 48.7l.3-.9" style="stroke:rgb(255, 255, 255);animation-play-state:paused" ></path>
<circle stroke-linejoin="round" stroke-linecap="round" fill="#77a4bd" stroke-miterlimit="10" stroke-width="3.5" stroke="#333" r="13.2" cy="50" cx="64.7" style="stroke:rgb(51, 51, 51);fill:rgb(119, 164, 189);animation-play-state:paused" ></circle>
<path stroke-miterlimit="10" stroke-width="3.5" stroke="#000" stroke-linejoin="round" stroke-linecap="round" opacity=".2" d="M72 39c1.7 3.6 2 8.2.3 12.5-2.5 6.3-8.2 10.2-14 10 1.9 1.1 4.1 1.7 6.4 1.7 7.3 0 13.2-5.9 13.2-13.2-.1-4.6-2.4-8.6-5.9-11z" style="animation-play-state:paused" ></path>
<path stroke-miterlimit="10" stroke-width="3.5" stroke="#fff" fill="none" stroke-linejoin="round" stroke-linecap="round" d="M58.4 44.6c1.2-1.3 2.7-2.4 4.3-3.2" style="stroke:rgb(255, 255, 255);animation-play-state:paused" ></path>
<path stroke-miterlimit="10" stroke-width="3.5" stroke="#fff" fill="none" stroke-linejoin="round" stroke-linecap="round" d="M56.1 48.7l.3-.9" style="stroke:rgb(255, 255, 255);animation-play-state:paused" ></path>
<circle stroke-miterlimit="10" stroke-width="3.5" stroke-linejoin="round" stroke="#333" stroke-linecap="round" fill="#abbd81" r="13.2" cy="66.6" cx="20.7" style="stroke:rgb(51, 51, 51);fill:rgb(171, 189, 129);animation-play-state:paused" ></circle>
<path stroke-miterlimit="10" stroke-width="3.5" stroke="#000" stroke-linejoin="round" stroke-linecap="round" opacity=".2" d="M28 55.6c1.7 3.6 2 8.2.3 12.5-2.5 6.3-8.2 10.2-14 10 1.9 1.1 4.1 1.7 6.4 1.7 7.3 0 13.2-5.9 13.2-13.2 0-4.6-2.4-8.6-5.9-11z" style="animation-play-state:paused" ></path>
<path stroke-miterlimit="10" stroke-width="3.5" stroke="#fff" fill="none" stroke-linejoin="round" stroke-linecap="round" d="M14.4 61.2c1.2-1.3 2.7-2.4 4.3-3.2" style="stroke:rgb(255, 255, 255);animation-play-state:paused" ></path>
<path stroke-miterlimit="10" stroke-width="3.5" stroke="#fff" fill="none" stroke-linejoin="round" stroke-linecap="round" d="M12.1 65.3l.3-.9" style="stroke:rgb(255, 255, 255);animation-play-state:paused" ></path>
<circle stroke-miterlimit="10" stroke-width="3.5" stroke-linejoin="round" stroke="#333" fill="#849b87" stroke-linecap="round" r="13.2" cy="66.6" cx="50" style="stroke:rgb(51, 51, 51);fill:rgb(132, 155, 135);animation-play-state:paused" ></circle>
<path stroke-miterlimit="10" stroke-width="3.5" stroke="#000" stroke-linejoin="round" stroke-linecap="round" opacity=".2" d="M57.3 55.6c1.7 3.6 2 8.2.3 12.5-2.5 6.3-8.2 10.2-14 10 1.9 1.1 4.1 1.7 6.4 1.7 7.3 0 13.2-5.9 13.2-13.2 0-4.6-2.4-8.6-5.9-11z" style="animation-play-state:paused" ></path>
<path stroke-miterlimit="10" stroke-width="3.5" stroke="#fff" fill="none" stroke-linejoin="round" stroke-linecap="round" d="M43.7 61.2c1.2-1.3 2.7-2.4 4.3-3.2" style="stroke:rgb(255, 255, 255);animation-play-state:paused" ></path>
<path stroke-miterlimit="10" stroke-width="3.5" stroke="#fff" fill="none" stroke-linejoin="round" stroke-linecap="round" d="M41.4 65.3l.3-.9" style="stroke:rgb(255, 255, 255);animation-play-state:paused" ></path>
<circle stroke-miterlimit="10" stroke-width="3.5" stroke-linejoin="round" stroke="#333" stroke-linecap="round" fill="#abbd81" r="13.2" cy="66.6" cx="79.3" style="stroke:rgb(51, 51, 51);fill:rgb(171, 189, 129);animation-play-state:paused" ></circle>
<path stroke-miterlimit="10" stroke-width="3.5" stroke="#000" stroke-linejoin="round" stroke-linecap="round" opacity=".2" d="M86.6 55.6c1.7 3.6 2 8.2.3 12.5-2.5 6.3-8.2 10.2-14 10 1.9 1.1 4.1 1.7 6.4 1.7 7.3 0 13.2-5.9 13.2-13.2 0-4.6-2.3-8.6-5.9-11z" style="animation-play-state:paused" ></path>
<path stroke-miterlimit="10" stroke-width="3.5" stroke="#fff" fill="none" stroke-linejoin="round" stroke-linecap="round" d="M73 61.2c1.2-1.3 2.7-2.4 4.3-3.2" style="stroke:rgb(255, 255, 255);animation-play-state:paused" ></path>
<path stroke-miterlimit="10" stroke-width="3.5" stroke="#fff" fill="none" stroke-linejoin="round" stroke-linecap="round" d="M70.8 65.3l.3-.9" style="stroke:rgb(255, 255, 255);animation-play-state:paused" ></path>
<metadata xmlns:d="https://loading.io/stock/" style="animation-play-state:paused" ><d:name style="animation-play-state:paused" >cue sports</d:name>
<d:tags style="animation-play-state:paused" >cue sports,billiard sports,pool table,ball</d:tags>
<d:license style="animation-play-state:paused" >by</d:license>
<d:slug style="animation-play-state:paused" >u2yny0</d:slug></metadata></g><!-- generated by https://loading.io/ --></svg>