<?xml version="1.0" encoding="utf-8"?><svg viewBox="0 0 100 100" xmlns="http://www.w3.org/2000/svg" width="125px" height="125px" xmlns:xlink="http://www.w3.org/1999/xlink" style="width:100%;height:100%;background-size:initial;background-repeat-y:initial;background-repeat-x:initial;background-position-y:initial;background-position-x:initial;background-origin:initial;background-image:initial;background-color:transparent;background-clip:initial;background-attachment:initial;animation-play-state:paused" ><g class="ldl-scale" style="transform-origin:50% 50%;transform:rotate(0deg) scale(0.8, 0.8);animation-play-state:paused" ><path fill="#f5e169" d="M20.788 71.53l9.562-14.035c.548-.734.163-1.995-.609-1.995l-12.398.001c-.881 0-1.684.681-2.066 1.752L6.064 78.968c-.148.394.062.861.39.864h14.331l-3.169 8.047c-.257.596-.158 1.355.235 1.795.393.44.964.433 1.351-.018L33.83 72.604c.31-.362.119-1.05-.292-1.045l-12.75-.029z" style="fill:rgb(255, 255, 255);animation-play-state:paused" ></path>
<path fill="#f8b26a" d="M51.827 47.172l22.172-32.545c1.27-1.702.378-4.627-1.412-4.627l-28.75.002c-2.042 0-3.904 1.579-4.791 4.062l-21.36 50.354c-.343.914.145 1.996.904 2.004h33.231l-7.349 18.66c-.596 1.381-.366 3.142.545 4.163.911 1.021 2.236 1.004 3.132-.041L82.07 49.661c.72-.839.275-2.434-.676-2.424l-29.567-.065z" style="fill:rgb(204, 0, 0);animation-play-state:paused" ></path>
<path fill="#f5e169" d="M80.788 71.53l9.562-14.035c.548-.734.163-1.995-.609-1.995l-12.398.001c-.881 0-1.684.681-2.066 1.752l-9.212 21.715c-.148.394.062.861.39.864h14.331l-3.169 8.047c-.257.596-.158 1.355.235 1.795.393.44.964.433 1.351-.018L93.83 72.604c.31-.362.119-1.05-.292-1.045l-12.75-.029z" style="fill:rgb(255, 255, 255);animation-play-state:paused" ></path>
<metadata xmlns:d="https://loading.io/stock/" style="animation-play-state:paused" ><d:name style="animation-play-state:paused" >thunder</d:name>


<d:tags style="animation-play-state:paused" >thunder,lightning,electronic,electricity,power,energy,supply,plant,percent,ratio,charge</d:tags>


<d:license style="animation-play-state:paused" >by</d:license>


<d:slug style="animation-play-state:paused" >v0mu1i</d:slug></metadata></g><!-- generated by https://loading.io/ --></svg>